<svg width="43" height="43" viewBox="0 0 43 43" fill="none" xmlns="http://www.w3.org/2000/svg">
<path d="M35.3506 31.8268H13.1104C11.4626 31.8268 10.4913 30.5689 10.3837 29.3257C10.2996 28.3548 10.7334 27.2838 11.7015 26.7269L8.1398 10.7806C8.0775 10.5012 8.14546 10.2081 8.32482 9.98437C8.50371 9.76064 8.7751 9.63037 9.0616 9.63037H41.7716C42.077 9.63037 42.3644 9.77858 42.5414 10.0278C42.7184 10.277 42.7637 10.597 42.6632 10.8854L38.8953 21.6827C38.4275 23.0222 37.2688 24.0054 35.8717 24.2494L12.9697 28.2519C12.9669 28.2524 12.964 28.2528 12.9607 28.2533C12.2532 28.3793 12.2494 28.9806 12.2655 29.1624C12.2811 29.3445 12.3887 29.9383 13.1113 29.9383H35.3516C35.8727 29.9383 36.2956 30.3612 36.2956 30.8823C36.2956 31.4034 35.8722 31.8268 35.3506 31.8268ZM10.2392 11.5188L13.5271 26.2384L35.5465 22.3907C36.2701 22.2642 36.8704 21.7549 37.1126 21.0611L40.4425 11.5193H10.2392V11.5188Z" fill="white"/>
<path d="M13.3793 39.464C11.6731 39.464 10.2854 38.0764 10.2854 36.3701C10.2854 34.6639 11.6731 33.2758 13.3793 33.2758C15.0856 33.2758 16.4737 34.6634 16.4737 36.3701C16.4732 38.0764 15.0851 39.464 13.3793 39.464ZM13.3793 35.1642C12.7143 35.1642 12.1734 35.7051 12.1734 36.3706C12.1734 37.0352 12.7143 37.5765 13.3793 37.5765C14.0443 37.5765 14.5857 37.0356 14.5857 36.3706C14.5852 35.7051 14.0443 35.1642 13.3793 35.1642Z" fill="white"/>
<path d="M32.7306 39.464C31.0244 39.464 29.6362 38.0764 29.6362 36.3701C29.6362 34.6639 31.0239 33.2758 32.7306 33.2758C34.4373 33.2758 35.825 34.6634 35.825 36.3701C35.8245 38.0764 34.4369 39.464 32.7306 39.464ZM32.7306 35.1642C32.0656 35.1642 31.5242 35.7051 31.5242 36.3706C31.5242 37.0352 32.0651 37.5765 32.7306 37.5765C33.3961 37.5765 33.937 37.0356 33.937 36.3706C33.9366 35.7051 33.3956 35.1642 32.7306 35.1642Z" fill="white"/>
<path d="M9.06022 11.5188C8.62788 11.5188 8.23801 11.22 8.13984 10.7806L7.47574 7.80657C7.15621 6.37501 5.90826 5.37533 4.44178 5.37533H1.18031C0.659233 5.37533 0.236328 4.95243 0.236328 4.43135C0.236328 3.91027 0.659233 3.48737 1.18031 3.48737H4.44131C6.79891 3.48737 8.8044 5.09403 9.3184 7.39499L9.98249 10.369C10.0962 10.8778 9.77576 11.3824 9.26695 11.4961C9.19757 11.5117 9.12819 11.5188 9.06022 11.5188Z" fill="white"/>
</svg>
