<svg width="31" height="31" viewBox="0 0 31 31" fill="none" xmlns="http://www.w3.org/2000/svg">
<path d="M25.4852 22.9448H9.45153C8.26363 22.9448 7.56335 22.038 7.48577 21.1417C7.4252 20.4418 7.73791 19.6697 8.43581 19.2682L5.86811 7.77203C5.82319 7.57059 5.87219 7.35928 6.0015 7.19799C6.13046 7.0367 6.32612 6.94279 6.53266 6.94279H30.1143C30.3344 6.94279 30.5417 7.04963 30.6693 7.2293C30.7969 7.40896 30.8295 7.63967 30.7571 7.84757L28.0407 15.6317C27.7035 16.5974 26.8681 17.3062 25.8609 17.4821L9.35013 20.3676C9.34809 20.3679 9.34604 20.3683 9.34366 20.3686C8.83359 20.4595 8.83087 20.893 8.84244 21.024C8.85367 21.1553 8.93125 21.5834 9.45221 21.5834H25.4859C25.8616 21.5834 26.1664 21.8883 26.1664 22.2639C26.1664 22.6396 25.8612 22.9448 25.4852 22.9448ZM7.38165 8.30422L9.75199 18.916L25.6264 16.1421C26.1481 16.0509 26.5809 15.6837 26.7555 15.1835L29.1561 8.30456H7.38165V8.30422Z" fill="black"/>
<path d="M9.64553 28.4508C8.41544 28.4508 7.41504 27.4504 7.41504 26.2203C7.41504 24.9902 8.41544 23.9895 9.64553 23.9895C10.8756 23.9895 11.8764 24.9899 11.8764 26.2203C11.876 27.4504 10.8753 28.4508 9.64553 28.4508ZM9.64553 25.3509C9.16609 25.3509 8.77613 25.7409 8.77613 26.2206C8.77613 26.6997 9.16609 27.09 9.64553 27.09C10.125 27.09 10.5153 26.7001 10.5153 26.2206C10.5149 25.7409 10.125 25.3509 9.64553 25.3509Z" fill="black"/>
<path d="M23.5964 28.4508C22.3663 28.4508 21.3656 27.4504 21.3656 26.2203C21.3656 24.9902 22.366 23.9895 23.5964 23.9895C24.8269 23.9895 25.8273 24.9899 25.8273 26.2203C25.8269 27.4504 24.8265 28.4508 23.5964 28.4508ZM23.5964 25.3509C23.117 25.3509 22.7267 25.7409 22.7267 26.2206C22.7267 26.6997 23.1166 27.09 23.5964 27.09C24.0762 27.09 24.4662 26.7001 24.4662 26.2206C24.4658 25.7409 24.0759 25.3509 23.5964 25.3509Z" fill="black"/>
<path d="M6.5317 8.30422C6.22001 8.30422 5.93894 8.08883 5.86817 7.77203L5.3894 5.62797C5.15904 4.59592 4.25935 3.87522 3.20212 3.87522H0.850835C0.475173 3.87522 0.170288 3.57034 0.170288 3.19468C0.170288 2.81901 0.475173 2.51413 0.850835 2.51413H3.20178C4.90145 2.51413 6.34727 3.67242 6.71783 5.33125L7.1966 7.47532C7.2786 7.84213 7.04755 8.20588 6.68074 8.28789C6.63072 8.29912 6.5807 8.30422 6.5317 8.30422Z" fill="black"/>
</svg>
