<svg width="25" height="26" viewBox="0 0 25 26" fill="none" xmlns="http://www.w3.org/2000/svg">
<path d="M21.5002 5.23207C20.9732 4.70489 20.3476 4.28669 19.659 4.00136C18.9704 3.71604 18.2323 3.56918 17.487 3.56918C16.7416 3.56918 16.0035 3.71604 15.3149 4.00136C14.6263 4.28669 14.0007 4.70489 13.4737 5.23207L12.3801 6.32565L11.2866 5.23207C10.2222 4.16769 8.77859 3.56974 7.27334 3.56974C5.76809 3.56974 4.32449 4.16769 3.26011 5.23207C2.19574 6.29644 1.59778 7.74004 1.59778 9.2453C1.59778 10.7505 2.19574 12.1941 3.26011 13.2585L4.35369 14.3521L12.3801 22.3786L20.4066 14.3521L21.5002 13.2585C22.0274 12.7316 22.4456 12.1059 22.7309 11.4173C23.0162 10.7287 23.1631 9.99067 23.1631 9.2453C23.1631 8.49992 23.0162 7.76185 22.7309 7.07325C22.4456 6.38464 22.0274 5.759 21.5002 5.23207Z" stroke="black" stroke-width="1.65068" stroke-linecap="round" stroke-linejoin="round"/>
</svg>
