<svg width="37" height="37" viewBox="0 0 37 37" fill="none" xmlns="http://www.w3.org/2000/svg">
<path d="M32.1284 7.10703C31.341 6.31924 30.4061 5.69432 29.3771 5.26795C28.3481 4.84158 27.2452 4.62213 26.1314 4.62213C25.0175 4.62213 23.9146 4.84158 22.8856 5.26795C21.8566 5.69432 20.9217 6.31924 20.1343 7.10703L18.5001 8.7412L16.8659 7.10703C15.2754 5.5165 13.1182 4.62296 10.8689 4.62296C8.61951 4.62296 6.4623 5.5165 4.87177 7.10703C3.28124 8.69755 2.3877 10.8548 2.3877 13.1041C2.3877 15.3535 3.28124 17.5107 4.87177 19.1012L6.50594 20.7354L18.5001 32.7295L30.4943 20.7354L32.1284 19.1012C32.9162 18.3138 33.5412 17.3789 33.9675 16.3499C34.3939 15.3209 34.6133 14.2179 34.6133 13.1041C34.6133 11.9903 34.3939 10.8874 33.9675 9.85836C33.5412 8.82936 32.9162 7.89444 32.1284 7.10703Z" stroke="white" stroke-width="1.65068" stroke-linecap="round" stroke-linejoin="round"/>
</svg>
